<mxfile host="app.diagrams.net" modified="2023-11-01T05:02:07.769Z" agent="Mozilla/5.0 (X11; Linux x86_64) AppleWebKit/537.36 (KHTML, like Gecko) Chrome/118.0.0.0 Safari/537.36" etag="MbMZAF53ZdBYuSf8rZt9" version="22.0.8" type="github">
  <diagram name="Page-1" id="ucO0x2ol90SgEbuF_Kbk">
    <mxGraphModel dx="872" dy="443" grid="1" gridSize="10" guides="1" tooltips="1" connect="1" arrows="1" fold="1" page="1" pageScale="1" pageWidth="827" pageHeight="1169" math="0" shadow="0">
      <root>
        <mxCell id="0" />
        <mxCell id="1" parent="0" />
        <mxCell id="vMfC2lf65qL4EpnagAe_-1" value="1.Process credit card Application" style="ellipse;whiteSpace=wrap;html=1;" vertex="1" parent="1">
          <mxGeometry x="240" y="30" width="176" height="60" as="geometry" />
        </mxCell>
        <mxCell id="vMfC2lf65qL4EpnagAe_-3" value="2.Process Loan Application" style="ellipse;whiteSpace=wrap;html=1;" vertex="1" parent="1">
          <mxGeometry x="250" y="140" width="120" height="50" as="geometry" />
        </mxCell>
        <mxCell id="vMfC2lf65qL4EpnagAe_-4" value="2.1 Process Home Equity loan" style="ellipse;whiteSpace=wrap;html=1;" vertex="1" parent="1">
          <mxGeometry x="190" y="265" width="100" height="50" as="geometry" />
        </mxCell>
        <mxCell id="vMfC2lf65qL4EpnagAe_-5" value="2.2 Process Home Morgage loan" style="ellipse;whiteSpace=wrap;html=1;" vertex="1" parent="1">
          <mxGeometry x="342" y="260" width="98" height="55" as="geometry" />
        </mxCell>
        <mxCell id="vMfC2lf65qL4EpnagAe_-6" value="2.3 Process Auto Loan" style="ellipse;whiteSpace=wrap;html=1;" vertex="1" parent="1">
          <mxGeometry x="500" y="265" width="90" height="50" as="geometry" />
        </mxCell>
        <mxCell id="vMfC2lf65qL4EpnagAe_-7" value="Customer&lt;br&gt;/Applicant" style="shape=umlActor;verticalLabelPosition=bottom;verticalAlign=top;html=1;outlineConnect=0;" vertex="1" parent="1">
          <mxGeometry x="27" y="110" width="30" height="60" as="geometry" />
        </mxCell>
        <mxCell id="vMfC2lf65qL4EpnagAe_-9" value="3.Check Credit History" style="ellipse;whiteSpace=wrap;html=1;" vertex="1" parent="1">
          <mxGeometry x="530" y="40" width="147" height="40" as="geometry" />
        </mxCell>
        <mxCell id="vMfC2lf65qL4EpnagAe_-10" value="4.Asses Property Value" style="ellipse;whiteSpace=wrap;html=1;" vertex="1" parent="1">
          <mxGeometry x="530" y="120" width="160" height="40" as="geometry" />
        </mxCell>
        <mxCell id="vMfC2lf65qL4EpnagAe_-12" value="Credit/&lt;br&gt;Bureau" style="shape=umlActor;verticalLabelPosition=bottom;verticalAlign=top;html=1;outlineConnect=0;" vertex="1" parent="1">
          <mxGeometry x="780" y="20" width="30" height="60" as="geometry" />
        </mxCell>
        <mxCell id="vMfC2lf65qL4EpnagAe_-13" value="Assesor" style="shape=umlActor;verticalLabelPosition=bottom;verticalAlign=top;html=1;outlineConnect=0;" vertex="1" parent="1">
          <mxGeometry x="780" y="160" width="30" height="60" as="geometry" />
        </mxCell>
        <mxCell id="vMfC2lf65qL4EpnagAe_-17" value="" style="endArrow=none;html=1;rounded=0;exitX=0.5;exitY=0.5;exitDx=0;exitDy=0;exitPerimeter=0;" edge="1" parent="1" source="vMfC2lf65qL4EpnagAe_-7">
          <mxGeometry width="50" height="50" relative="1" as="geometry">
            <mxPoint x="80" y="190" as="sourcePoint" />
            <mxPoint x="200" y="280" as="targetPoint" />
          </mxGeometry>
        </mxCell>
        <mxCell id="vMfC2lf65qL4EpnagAe_-20" value="" style="endArrow=none;html=1;rounded=0;exitX=0.5;exitY=0.5;exitDx=0;exitDy=0;exitPerimeter=0;entryX=0.063;entryY=0.3;entryDx=0;entryDy=0;entryPerimeter=0;" edge="1" parent="1" source="vMfC2lf65qL4EpnagAe_-7" target="vMfC2lf65qL4EpnagAe_-1">
          <mxGeometry width="50" height="50" relative="1" as="geometry">
            <mxPoint x="150" y="80" as="sourcePoint" />
            <mxPoint x="200" y="30" as="targetPoint" />
          </mxGeometry>
        </mxCell>
        <mxCell id="vMfC2lf65qL4EpnagAe_-24" value="" style="endArrow=classic;html=1;rounded=0;" edge="1" parent="1">
          <mxGeometry width="50" height="50" relative="1" as="geometry">
            <mxPoint x="240" y="260" as="sourcePoint" />
            <mxPoint x="280" y="190" as="targetPoint" />
          </mxGeometry>
        </mxCell>
        <mxCell id="vMfC2lf65qL4EpnagAe_-25" value="" style="endArrow=classic;html=1;rounded=0;entryX=0.575;entryY=1.08;entryDx=0;entryDy=0;entryPerimeter=0;" edge="1" parent="1" target="vMfC2lf65qL4EpnagAe_-3">
          <mxGeometry width="50" height="50" relative="1" as="geometry">
            <mxPoint x="390" y="260" as="sourcePoint" />
            <mxPoint x="440" y="210" as="targetPoint" />
          </mxGeometry>
        </mxCell>
        <mxCell id="vMfC2lf65qL4EpnagAe_-26" value="" style="endArrow=classic;html=1;rounded=0;exitX=0.222;exitY=0.04;exitDx=0;exitDy=0;exitPerimeter=0;entryX=1;entryY=1;entryDx=0;entryDy=0;" edge="1" parent="1" source="vMfC2lf65qL4EpnagAe_-6" target="vMfC2lf65qL4EpnagAe_-3">
          <mxGeometry width="50" height="50" relative="1" as="geometry">
            <mxPoint x="390" y="260" as="sourcePoint" />
            <mxPoint x="440" y="210" as="targetPoint" />
          </mxGeometry>
        </mxCell>
        <mxCell id="vMfC2lf65qL4EpnagAe_-28" value="" style="endArrow=none;dashed=1;html=1;dashPattern=1 3;strokeWidth=2;rounded=0;entryX=1;entryY=0.5;entryDx=0;entryDy=0;exitX=0;exitY=0.5;exitDx=0;exitDy=0;" edge="1" parent="1" source="vMfC2lf65qL4EpnagAe_-9" target="vMfC2lf65qL4EpnagAe_-1">
          <mxGeometry width="50" height="50" relative="1" as="geometry">
            <mxPoint x="390" y="260" as="sourcePoint" />
            <mxPoint x="440" y="210" as="targetPoint" />
          </mxGeometry>
        </mxCell>
        <mxCell id="vMfC2lf65qL4EpnagAe_-29" value="&amp;lt;&amp;lt;include&amp;gt;&amp;gt;" style="text;html=1;align=center;verticalAlign=middle;resizable=0;points=[];autosize=1;strokeColor=none;fillColor=none;" vertex="1" parent="1">
          <mxGeometry x="415" y="38" width="90" height="30" as="geometry" />
        </mxCell>
        <mxCell id="vMfC2lf65qL4EpnagAe_-30" value="" style="endArrow=none;dashed=1;html=1;dashPattern=1 3;strokeWidth=2;rounded=0;entryX=0.908;entryY=0.14;entryDx=0;entryDy=0;entryPerimeter=0;exitX=0;exitY=0.5;exitDx=0;exitDy=0;" edge="1" parent="1" source="vMfC2lf65qL4EpnagAe_-10" target="vMfC2lf65qL4EpnagAe_-3">
          <mxGeometry width="50" height="50" relative="1" as="geometry">
            <mxPoint x="390" y="260" as="sourcePoint" />
            <mxPoint x="440" y="210" as="targetPoint" />
          </mxGeometry>
        </mxCell>
        <mxCell id="vMfC2lf65qL4EpnagAe_-31" value="&amp;lt;&amp;lt;include&amp;gt;&amp;gt;" style="edgeLabel;html=1;align=center;verticalAlign=middle;resizable=0;points=[];" vertex="1" connectable="0" parent="vMfC2lf65qL4EpnagAe_-30">
          <mxGeometry x="0.4224" y="3" relative="1" as="geometry">
            <mxPoint as="offset" />
          </mxGeometry>
        </mxCell>
        <mxCell id="vMfC2lf65qL4EpnagAe_-32" value="" style="endArrow=none;dashed=1;html=1;dashPattern=1 3;strokeWidth=2;rounded=0;entryX=0;entryY=0.75;entryDx=0;entryDy=0;entryPerimeter=0;" edge="1" parent="1" source="vMfC2lf65qL4EpnagAe_-3" target="vMfC2lf65qL4EpnagAe_-9">
          <mxGeometry width="50" height="50" relative="1" as="geometry">
            <mxPoint x="390" y="260" as="sourcePoint" />
            <mxPoint x="440" y="210" as="targetPoint" />
          </mxGeometry>
        </mxCell>
        <mxCell id="vMfC2lf65qL4EpnagAe_-33" value="&amp;lt;&amp;lt;Include&amp;gt;&amp;gt;" style="edgeLabel;html=1;align=center;verticalAlign=middle;resizable=0;points=[];" vertex="1" connectable="0" parent="vMfC2lf65qL4EpnagAe_-32">
          <mxGeometry x="0.0471" y="5" relative="1" as="geometry">
            <mxPoint as="offset" />
          </mxGeometry>
        </mxCell>
        <mxCell id="vMfC2lf65qL4EpnagAe_-39" value="" style="endArrow=none;html=1;rounded=0;entryX=0.5;entryY=0.5;entryDx=0;entryDy=0;entryPerimeter=0;" edge="1" parent="1" target="vMfC2lf65qL4EpnagAe_-12">
          <mxGeometry width="50" height="50" relative="1" as="geometry">
            <mxPoint x="680" y="60" as="sourcePoint" />
            <mxPoint x="780" y="10" as="targetPoint" />
          </mxGeometry>
        </mxCell>
        <mxCell id="vMfC2lf65qL4EpnagAe_-41" value="" style="endArrow=none;html=1;rounded=0;entryX=0.5;entryY=0.5;entryDx=0;entryDy=0;entryPerimeter=0;" edge="1" parent="1" source="vMfC2lf65qL4EpnagAe_-10" target="vMfC2lf65qL4EpnagAe_-13">
          <mxGeometry width="50" height="50" relative="1" as="geometry">
            <mxPoint x="750" y="180" as="sourcePoint" />
            <mxPoint x="800" y="130" as="targetPoint" />
          </mxGeometry>
        </mxCell>
        <mxCell id="vMfC2lf65qL4EpnagAe_-42" value="" style="swimlane;startSize=0;" vertex="1" parent="1">
          <mxGeometry x="90" y="10" width="650" height="330" as="geometry" />
        </mxCell>
      </root>
    </mxGraphModel>
  </diagram>
</mxfile>
